<svg data-v-423bf9ae="" xmlns="http://www.w3.org/2000/svg" viewBox="0 0 393.3136839905329 163" class="iconAbove"><!----><!----><!----><g data-v-423bf9ae="" id="92f5a2e5-80f2-4494-a05b-bfed9875d2cb" fill="black" transform="matrix(4.4182621750432,0,0,4.4182621750432,-5.5228208065997535,102.11634965288764)"><path d="M6.08 6.20C7.38 5.91 7.90 4.68 7.90 3.42C7.90 2.28 7.42 1.41 6.47 1.05C5.91 0.84 5.25 0.76 4.24 0.76L1.25 0.76L1.25 10.64L2.37 10.64L2.37 6.40L4.14 6.40C4.80 6.40 5.54 6.33 6.08 6.20ZM2.37 5.68L2.37 1.44L4.26 1.44C4.90 1.44 5.50 1.48 5.94 1.74C6.51 2.07 6.72 2.79 6.72 3.46C6.72 4.34 6.47 5.03 5.95 5.33C5.60 5.54 5.03 5.68 4.17 5.68ZM10.89 10.64L10.89 0.20L9.83 0.20L9.83 10.64ZM17.30 10.64L18.33 10.64C18.16 10.11 18.14 9.56 18.14 9.09L18.14 5.80C18.14 4.79 17.95 4.33 17.58 3.95C17.15 3.51 16.45 3.40 15.75 3.40C15.06 3.40 14.15 3.56 13.41 3.91L13.41 4.72C14.28 4.24 15.04 4.14 15.62 4.14C16.14 4.14 16.55 4.28 16.79 4.59C17.02 4.90 17.11 5.39 17.11 5.91L17.11 6.54C16.86 6.52 16.49 6.51 16.23 6.51C13.78 6.51 12.74 7.28 12.74 8.65C12.74 9.90 13.57 10.81 14.99 10.81C16.11 10.81 16.77 10.32 17.14 9.66C17.15 9.93 17.23 10.40 17.30 10.64ZM17.11 7.11L17.11 8.11C17.11 8.57 17.04 9.03 16.77 9.34C16.41 9.79 15.86 10.09 15.20 10.09C14.31 10.09 13.80 9.52 13.80 8.62C13.80 7.78 14.41 7.10 16.42 7.10C16.65 7.10 16.91 7.10 17.11 7.11ZM24.96 10.64L26.00 10.64L26.00 6.48C26.00 5.64 25.97 5.25 25.91 4.87C25.76 3.78 24.93 3.40 23.95 3.40C23.31 3.40 22.15 3.68 21.50 4.61C21.50 4.48 21.45 3.82 21.39 3.58L20.36 3.58C20.45 4.24 20.50 5.43 20.50 6.26L20.50 10.64L21.55 10.64L21.55 6.40C21.55 5.59 21.60 5.32 21.85 4.94C22.23 4.40 22.93 4.12 23.56 4.12C24.28 4.12 24.68 4.40 24.84 4.94C24.93 5.31 24.96 5.82 24.96 6.68ZM32.83 10.64L33.87 10.64L33.87 6.48C33.87 5.64 33.84 5.25 33.78 4.87C33.63 3.78 32.80 3.40 31.82 3.40C31.18 3.40 30.02 3.68 29.37 4.61C29.37 4.48 29.32 3.82 29.26 3.58L28.22 3.58C28.32 4.24 28.36 5.43 28.36 6.26L28.36 10.64L29.41 10.64L29.41 6.40C29.41 5.59 29.47 5.32 29.72 4.94C30.10 4.40 30.80 4.12 31.43 4.12C32.14 4.12 32.55 4.40 32.70 4.94C32.80 5.31 32.83 5.82 32.83 6.68ZM37.27 10.64L37.27 3.58L36.20 3.58L36.20 10.64ZM37.38 1.40C37.38 0.87 37.18 0.70 36.75 0.70C36.30 0.70 36.08 0.88 36.08 1.40C36.08 1.95 36.29 2.10 36.72 2.10C37.17 2.10 37.38 1.92 37.38 1.40ZM44.13 10.64L45.16 10.64L45.16 6.48C45.16 5.64 45.14 5.25 45.08 4.87C44.93 3.78 44.10 3.40 43.12 3.40C42.48 3.40 41.31 3.68 40.67 4.61C40.67 4.48 40.61 3.82 40.56 3.58L39.52 3.58C39.62 4.24 39.66 5.43 39.66 6.26L39.66 10.64L40.71 10.64L40.71 6.40C40.71 5.59 40.77 5.32 41.02 4.94C41.40 4.40 42.10 4.12 42.73 4.12C43.44 4.12 43.85 4.40 44.00 4.94C44.10 5.31 44.13 5.82 44.13 6.68ZM53.03 5.60C53.03 4.94 53.05 4.28 53.10 3.58L52.14 3.58C52.09 3.85 52.07 4.09 52.05 4.24C51.62 3.72 50.93 3.43 50.02 3.43C48.47 3.43 47.01 4.37 47.01 7.18C47.01 9.56 48.02 10.67 49.78 10.67C50.75 10.67 51.48 10.37 52.00 9.76L52.00 10.47C52.00 11.49 51.81 12.15 51.46 12.50C51.13 12.84 50.48 13.02 49.84 13.02C49.18 13.02 48.37 12.91 47.64 12.50L47.64 13.37C48.26 13.64 48.97 13.78 49.84 13.78C50.89 13.78 51.93 13.51 52.47 12.81C52.86 12.32 53.03 11.59 53.03 10.46ZM52.01 6.87C52.01 8.99 51.90 9.17 51.39 9.59C51.14 9.80 50.64 10.00 50.11 10.00C48.92 10.00 48.10 9.10 48.10 7.20C48.10 5.07 49.03 4.10 50.13 4.10C50.72 4.10 51.28 4.26 51.63 4.72C51.91 5.07 52.01 5.33 52.01 6.87ZM65.11 1.86L65.11 0.97C64.51 0.74 63.76 0.55 62.71 0.55C59.98 0.55 58.27 2.25 58.27 5.85C58.27 9.39 59.95 10.84 62.47 10.84C63.66 10.84 64.65 10.53 65.16 10.26L65.16 9.37C64.50 9.77 63.59 10.02 62.59 10.02C60.56 10.02 59.46 8.69 59.46 5.75C59.46 2.62 60.68 1.30 62.73 1.30C63.67 1.30 64.47 1.53 65.11 1.86ZM70.60 10.64L71.62 10.64C71.46 10.11 71.44 9.56 71.44 9.09L71.44 5.80C71.44 4.79 71.25 4.33 70.88 3.95C70.45 3.51 69.75 3.40 69.05 3.40C68.36 3.40 67.45 3.56 66.71 3.91L66.71 4.72C67.58 4.24 68.33 4.14 68.92 4.14C69.44 4.14 69.85 4.28 70.08 4.59C70.32 4.90 70.41 5.39 70.41 5.91L70.41 6.54C70.15 6.52 69.79 6.51 69.52 6.51C67.07 6.51 66.04 7.28 66.04 8.65C66.04 9.90 66.86 10.81 68.29 10.81C69.41 10.81 70.07 10.32 70.43 9.66C70.45 9.93 70.53 10.40 70.60 10.64ZM70.41 7.11L70.41 8.11C70.41 8.57 70.34 9.03 70.07 9.34C69.71 9.79 69.16 10.09 68.50 10.09C67.61 10.09 67.10 9.52 67.10 8.62C67.10 7.78 67.70 7.10 69.72 7.10C69.94 7.10 70.21 7.10 70.41 7.11ZM74.84 10.64L74.84 6.40C74.84 5.78 74.96 5.26 75.22 4.90C75.53 4.48 75.95 4.34 76.41 4.34C76.69 4.34 77.04 4.38 77.32 4.51L77.32 3.54C77.08 3.47 76.85 3.44 76.57 3.44C75.92 3.44 75.15 3.86 74.80 4.62C74.80 4.41 74.76 3.92 74.69 3.58L73.65 3.58C73.75 4.23 73.79 5.04 73.79 5.73L73.79 10.64ZM83.13 9.72C83.16 9.94 83.22 10.43 83.26 10.64L84.27 10.64C84.20 10.18 84.14 9.52 84.14 8.99L84.14 0.20L83.10 0.20L83.10 4.07C82.60 3.63 81.96 3.43 81.13 3.43C79.87 3.43 78.12 4.16 78.12 7.21C78.12 9.58 79.21 10.79 80.91 10.79C81.93 10.79 82.56 10.39 83.13 9.72ZM83.12 7.04C83.12 8.65 82.95 9.14 82.53 9.59C82.24 9.91 81.82 10.14 81.12 10.14C79.98 10.14 79.21 9.24 79.21 7.20C79.21 4.98 80.14 4.07 81.24 4.07C81.83 4.07 82.38 4.20 82.75 4.61C83.06 4.96 83.12 5.52 83.12 7.04ZM85.72 9.53L85.72 10.44C86.34 10.68 87.02 10.82 87.63 10.82C89.32 10.82 90.27 10.07 90.27 8.76C90.27 7.78 89.81 7.29 88.59 6.75L87.85 6.43C87.22 6.15 86.91 5.81 86.91 5.29C86.91 4.49 87.56 4.09 88.28 4.09C88.93 4.09 89.40 4.23 89.96 4.51L89.96 3.64C89.49 3.49 88.94 3.40 88.31 3.40C86.80 3.40 85.90 4.16 85.90 5.38C85.90 6.24 86.35 6.89 87.36 7.32L87.96 7.57C88.76 7.91 89.19 8.23 89.19 8.88C89.19 9.63 88.77 10.11 87.63 10.11C87.00 10.11 86.34 9.87 85.72 9.53Z"></path></g><!----><g data-v-423bf9ae="" id="5960d343-b94c-4b59-a2ea-65f47af6623b" transform="matrix(1.1910827517415443,0,0,1.1910827517415443,140.051147511912,-13.211674387688205)" stroke="none" fill="black"><path d="M79.284 11.575l-26.694.3a9.885 9.885 0 0 0-5.169 1.534l-12.344 3.357a2.174 2.174 0 0 0-.137.043l-4.215 1.464-.002-.004-.022.012-.485.168a9.884 9.884 0 0 0-3.228 1.867l-3.631 1.99-2.49 1.387-.04-.054-.396.297-1.217.677a9.873 9.873 0 0 0-2.794 2.325l-6.303 4.717a9.81 9.81 0 0 0-3.7 6.661 9.806 9.806 0 0 0 2.051 7.194l25.596 37.792c.029.043.062.086.095.128a9.868 9.868 0 0 0 7.986 3.702 9.82 9.82 0 0 0 5.864-2.131l7.094-5.229 8.012-1.512 4.088-.767-.021.32 12.929.358.154-.004c5.361-.141 9.66-5.125 9.6-10.491l-.585-46.082c-.061-5.447-4.549-10.079-9.996-10.019zM28.346 24.97a5.771 5.771 0 0 1 1.015-1.341l2.988-1.638 1.491-.518a9.888 9.888 0 0 0-.666 5.776l7.825 45.08-13.03-42.562-.023-.072a5.843 5.843 0 0 1 .4-4.725zm14.476-3.104l.508 40.243-6.174-35.565-.006-.03a5.853 5.853 0 0 1 1.065-4.58 5.815 5.815 0 0 1 3.586-2.234l1.286-.242a9.896 9.896 0 0 0-.265 2.408zm-19.188 4.917a9.842 9.842 0 0 0 .479 4.202l13.082 42.733-18.217-37.533a3.212 3.212 0 0 0-.053-.101 5.835 5.835 0 0 1 .355-6.233l3.356-2.512.998-.556zM11.679 43.051a5.785 5.785 0 0 1-1.241-4.287 5.793 5.793 0 0 1 2.131-3.891l1.59-1.189a9.85 9.85 0 0 0 1.204 4.314l17.951 36.985-21.54-31.803a3.06 3.06 0 0 0-.095-.129zm74.128 24.173c.035 3.168-2.51 5.813-5.675 5.896l-26.788.304a5.843 5.843 0 0 1-5.899-5.771l-.578-45.834a5.774 5.774 0 0 1 1.154-3.547 5.777 5.777 0 0 1 4.522-2.35l26.787-.302a5.84 5.84 0 0 1 5.899 5.771l.578 45.833z"></path></g><!----></svg>