<svg data-v-423bf9ae="" xmlns="http://www.w3.org/2000/svg" viewBox="0 0 66.3130087781731 60" class="icon"><!----><!----><!----><!----><g data-v-423bf9ae="" id="d29a66e2-f7fe-444f-894d-c1a10e900812" transform="matrix(0.7940551678276963,0,0,0.7940551678276963,-5.045243865044505,-9.190737840490058)" stroke="none" fill="black"><path d="M79.284 11.575l-26.694.3a9.885 9.885 0 0 0-5.169 1.534l-12.344 3.357a2.174 2.174 0 0 0-.137.043l-4.215 1.464-.002-.004-.022.012-.485.168a9.884 9.884 0 0 0-3.228 1.867l-3.631 1.99-2.49 1.387-.04-.054-.396.297-1.217.677a9.873 9.873 0 0 0-2.794 2.325l-6.303 4.717a9.81 9.81 0 0 0-3.7 6.661 9.806 9.806 0 0 0 2.051 7.194l25.596 37.792c.029.043.062.086.095.128a9.868 9.868 0 0 0 7.986 3.702 9.82 9.82 0 0 0 5.864-2.131l7.094-5.229 8.012-1.512 4.088-.767-.021.32 12.929.358.154-.004c5.361-.141 9.66-5.125 9.6-10.491l-.585-46.082c-.061-5.447-4.549-10.079-9.996-10.019zM28.346 24.97a5.771 5.771 0 0 1 1.015-1.341l2.988-1.638 1.491-.518a9.888 9.888 0 0 0-.666 5.776l7.825 45.08-13.03-42.562-.023-.072a5.843 5.843 0 0 1 .4-4.725zm14.476-3.104l.508 40.243-6.174-35.565-.006-.03a5.853 5.853 0 0 1 1.065-4.58 5.815 5.815 0 0 1 3.586-2.234l1.286-.242a9.896 9.896 0 0 0-.265 2.408zm-19.188 4.917a9.842 9.842 0 0 0 .479 4.202l13.082 42.733-18.217-37.533a3.212 3.212 0 0 0-.053-.101 5.835 5.835 0 0 1 .355-6.233l3.356-2.512.998-.556zM11.679 43.051a5.785 5.785 0 0 1-1.241-4.287 5.793 5.793 0 0 1 2.131-3.891l1.59-1.189a9.85 9.85 0 0 0 1.204 4.314l17.951 36.985-21.54-31.803a3.06 3.06 0 0 0-.095-.129zm74.128 24.173c.035 3.168-2.51 5.813-5.675 5.896l-26.788.304a5.843 5.843 0 0 1-5.899-5.771l-.578-45.834a5.774 5.774 0 0 1 1.154-3.547 5.777 5.777 0 0 1 4.522-2.35l26.787-.302a5.84 5.84 0 0 1 5.899 5.771l.578 45.833z"></path></g><!----></svg>