<?xml version="1.0" standalone="no"?>
<!DOCTYPE svg PUBLIC "-//W3C//DTD SVG 20010904//EN"
 "http://www.w3.org/TR/2001/REC-SVG-20010904/DTD/svg10.dtd">
<svg version="1.0" xmlns="http://www.w3.org/2000/svg"
 width="700.000000pt" height="700.000000pt" viewBox="0 0 700.000000 700.000000"
 preserveAspectRatio="xMidYMid meet">
<metadata>
Created by potrace 1.11, written by Peter Selinger 2001-2013
</metadata>
<g transform="translate(0.000000,700.000000) scale(0.100000,-0.100000)"
fill="#000000" stroke="none">
<path d="M5080 5823 c-157 -2 -537 -7 -845 -12 -539 -8 -563 -9 -630 -30 -38
-13 -88 -33 -110 -46 -22 -12 -209 -68 -415 -124 -339 -92 -676 -198 -755
-238 -16 -9 -61 -37 -100 -63 -38 -26 -167 -101 -285 -165 -254 -140 -287
-161 -360 -230 -30 -29 -145 -120 -255 -202 -110 -82 -222 -174 -248 -203 -91
-104 -146 -256 -147 -401 0 -113 50 -267 115 -354 12 -16 349 -514 750 -1105
902 -1332 863 -1277 933 -1334 192 -157 466 -184 678 -66 27 15 157 107 287
203 l236 174 193 37 c459 87 548 102 550 94 2 -6 186 -14 421 -21 471 -12 492
-10 617 51 174 85 303 258 346 465 22 101 -17 3001 -41 3092 -50 190 -180 348
-350 425 -120 54 -163 58 -585 53z m430 -264 c69 -15 160 -78 204 -142 66 -97
63 -47 81 -1392 20 -1561 19 -1686 -3 -1747 -41 -113 -145 -204 -259 -226 -72
-14 -1711 -33 -1778 -21 -147 27 -258 139 -284 284 -11 64 -47 2793 -39 2915
11 150 117 272 270 310 28 7 264 14 648 19 942 12 1104 12 1160 0z m-2334
-276 c-3 -26 1 -576 10 -1223 8 -647 14 -1196 12 -1220 -2 -27 -54 250 -142
761 -249 1438 -237 1357 -226 1423 23 145 121 251 270 292 80 22 84 21 76 -33z
m-579 -130 c-11 -33 -22 -97 -24 -148 -5 -84 12 -186 231 -1449 130 -747 235
-1360 234 -1362 -2 -1 -180 576 -397 1284 -353 1155 -393 1293 -393 1352 1 78
28 159 72 212 30 36 161 115 250 149 25 10 45 18 46 19 0 0 -8 -26 -19 -57z
m-583 -498 c10 -33 180 -589 377 -1235 198 -646 371 -1211 384 -1254 14 -44
23 -81 22 -82 -1 -2 -253 514 -560 1146 -429 885 -559 1162 -565 1204 -11 71
1 154 32 214 24 47 41 61 206 180 l75 54 6 -83 c3 -46 14 -111 23 -144z m-592
-286 c15 -69 90 -232 569 -1217 303 -625 554 -1141 557 -1147 21 -42 -72 94
-478 695 -255 377 -549 811 -653 965 -105 154 -199 303 -210 330 -15 40 -18
68 -15 135 4 86 22 138 70 200 18 24 127 118 138 119 3 1 13 -35 22 -80z"/>
</g>
</svg>
